<svg xmlns="http://www.w3.org/2000/svg" xmlns:xlink="http://www.w3.org/1999/xlink" width="2000" zoomAndPan="magnify" viewBox="0 0 1500 1499.999933" height="2000" preserveAspectRatio="xMidYMid meet" version="1.0"><defs><clipPath id="0e2852cd65"><path d="M 750 0 C 335.785156 0 0 335.785156 0 750 C 0 1164.214844 335.785156 1500 750 1500 C 1164.214844 1500 1500 1164.214844 1500 750 C 1500 335.785156 1164.214844 0 750 0 Z M 750 0 " clip-rule="nonzero"/></clipPath><clipPath id="56cba6b880"><path d="M 0 0 L 1500 0 L 1500 1500 L 0 1500 Z M 0 0 " clip-rule="nonzero"/></clipPath><clipPath id="3e7077d2c7"><path d="M 750 0 C 335.785156 0 0 335.785156 0 750 C 0 1164.214844 335.785156 1500 750 1500 C 1164.214844 1500 1500 1164.214844 1500 750 C 1500 335.785156 1164.214844 0 750 0 Z M 750 0 " clip-rule="nonzero"/></clipPath><clipPath id="10be8f8758"><rect x="0" width="1500" y="0" height="1500"/></clipPath></defs><g clip-path="url(#0e2852cd65)"><g transform="matrix(1, 0, 0, 1, 0, 0.000000000000112861)"><g clip-path="url(#10be8f8758)"><g clip-path="url(#56cba6b880)"><g clip-path="url(#3e7077d2c7)"><rect x="-330" width="2160" fill="#60a5fa" height="2159.999904" y="-329.999985" fill-opacity="1"/></g></g></g></g></g><path fill="#2563eb" d="M 1048.785156 394.335938 C 1031.144531 410.648438 1013.242188 427.183594 993.273438 445.632812 C 986.515625 441.3125 978.554688 436.53125 970.898438 431.28125 C 742 274.179688 424.804688 391.550781 358.171875 661.109375 C 302.527344 886.246094 447.296875 1085.113281 639.308594 1134.652344 C 838.78125 1186.113281 1032.445312 1090.925781 1111.925781 903.738281 C 1144.386719 827.28125 1149.503906 747.832031 1130.859375 667.554688 C 1124.503906 640.210938 1125.257812 617.851562 1144.121094 596.1875 C 1154.457031 584.3125 1162.082031 570.097656 1173.128906 553.664062 C 1178.839844 561.820312 1183.910156 566.835938 1186.375 572.898438 C 1241.089844 707.683594 1239.101562 842.160156 1170.535156 970.195312 C 1073.886719 1150.625 918.070312 1240.34375 714.539062 1228.882812 C 410.792969 1211.773438 220.714844 932.835938 273.589844 663.246094 C 316.125 446.386719 520.09375 259.816406 786.660156 281.171875 C 873.691406 288.148438 953.480469 318.382812 1024.703125 369.722656 C 1030.777344 374.101562 1036.722656 378.71875 1042.296875 383.703125 C 1044.523438 385.695312 1045.601562 388.96875 1048.785156 394.335938 Z M 1048.785156 394.335938 " fill-opacity="1" fill-rule="nonzero"/><path fill="#2563eb" d="M 736.132812 818.460938 C 760.730469 791.234375 781.75 767.195312 803.589844 743.921875 C 927.359375 611.96875 1051.085938 479.980469 1175.460938 348.601562 C 1194.515625 328.484375 1216.359375 310.875 1237.875 293.28125 C 1246.371094 286.335938 1257.507812 282.601562 1267.433594 277.410156 C 1279.304688 293.769531 1271.371094 305.226562 1265 315.726562 C 1241.152344 355.078125 1217.746094 394.78125 1192.023438 432.890625 C 1069.257812 614.753906 946.121094 796.367188 822.128906 977.390625 C 805.980469 1000.957031 785.390625 1022.003906 764.433594 1041.621094 C 743.890625 1060.839844 733.226562 1059.953125 710.382812 1043.804688 C 700.792969 1037.035156 691.238281 1029.777344 683.273438 1021.253906 C 603.585938 936.050781 523.5625 851.15625 445.128906 764.820312 C 412.726562 729.160156 417.933594 707.566406 459.554688 683.675781 C 466.957031 679.425781 474.964844 676.226562 482.546875 672.230469 C 524.433594 650.152344 560.726562 653.203125 595.371094 689.484375 C 630.046875 725.796875 668.878906 758.140625 705.972656 792.121094 C 714.453125 799.90625 723.300781 807.28125 736.132812 818.460938 Z M 736.132812 818.460938 " fill-opacity="1" fill-rule="nonzero"/></svg>